<svg fill="none" height="147" viewBox="0 0 527 147" width="527" xmlns="http://www.w3.org/2000/svg"><g clip-rule="evenodd" fill="#17252A" fill-rule="evenodd"><path d="m43.5 100c1.932 0 3.5 1.566 3.5 3.5s-1.568 3.5-3.5 3.5-3.5-1.566-3.5-3.5c0-1.93 1.5645-3.5 3.5-3.5z"/><path d="m43.5 80c1.932 0 3.5 1.5664 3.5 3.5s-1.568 3.5-3.5 3.5-3.5-1.5664-3.5-3.5c0-1.9301 1.5645-3.5 3.5-3.5z"/><path d="m83.4983 80c1.9345 0 3.5017 1.5664 3.5017 3.5s-1.5672 3.5-3.5017 3.5c-1.9346 0-3.4983-1.5664-3.4983-3.5-.0035-1.9301 1.5637-3.5 3.4983-3.5z"/><path d="m83.5 100c1.9355 0 3.5 1.566 3.5 3.5s-1.568 3.5-3.5 3.5-3.5-1.566-3.5-3.5c0-1.93 1.568-3.5 3.5-3.5z"/><path d="m83.5 60c1.9355 0 3.5 1.5664 3.5 3.5s-1.568 3.5-3.5 3.5-3.5-1.5664-3.5-3.5c0-1.9301 1.568-3.5 3.5-3.5z"/><path d="m323.498 60c1.935 0 3.502 1.5664 3.502 3.5s-1.567 3.5-3.502 3.5c-1.931 0-3.498-1.5664-3.498-3.5 0-1.9301 1.567-3.5 3.498-3.5z"/><path d="m63.4983 60c1.9345 0 3.5017 1.5664 3.5017 3.5s-1.5672 3.5-3.5017 3.5c-1.9346 0-3.4983-1.5664-3.4983-3.5-.0035-1.9301 1.5637-3.5 3.4983-3.5z"/><path d="m43.5 60c1.932 0 3.5 1.5664 3.5 3.5s-1.568 3.5-3.5 3.5-3.5-1.5664-3.5-3.5c0-1.9301 1.5645-3.5 3.5-3.5z"/><path d="m43.5 40c1.932 0 3.5 1.5664 3.5 3.5s-1.568 3.5-3.5 3.5-3.5-1.5664-3.5-3.5c0-1.9301 1.5645-3.5 3.5-3.5z"/><path d="m283.498 40c1.935 0 3.502 1.5664 3.502 3.5s-1.567 3.5-3.502 3.5c-1.931 0-3.498-1.5664-3.498-3.5 0-1.9301 1.567-3.5 3.498-3.5z"/><path d="m103.498 40c1.935 0 3.502 1.5664 3.502 3.5s-1.567 3.5-3.502 3.5c-1.931 0-3.498-1.5664-3.498-3.5 0-1.9301 1.571-3.5 3.498-3.5z"/><path d="m83.5 40c1.9355 0 3.5 1.5664 3.5 3.5s-1.568 3.5-3.5 3.5-3.5-1.5664-3.5-3.5c0-1.9301 1.568-3.5 3.5-3.5z"/><path d="m323.498 40c1.935 0 3.502 1.5664 3.502 3.5s-1.567 3.5-3.502 3.5c-1.931 0-3.498-1.5664-3.498-3.5 0-1.9301 1.567-3.5 3.498-3.5z"/><path d="m43.5 20c1.932 0 3.5 1.5664 3.5 3.5s-1.568 3.5-3.5 3.5-3.5-1.5664-3.5-3.5c0-1.9301 1.5645-3.5 3.5-3.5z"/><path d="m63.4983 20c1.9345 0 3.5017 1.5664 3.5017 3.5s-1.5672 3.5-3.5017 3.5c-1.9346 0-3.4983-1.5664-3.4983-3.5-.0035-1.9301 1.5637-3.5 3.4983-3.5z"/><path d="m83.5 20c1.9355 0 3.5 1.5664 3.5 3.5s-1.568 3.5-3.5 3.5-3.5-1.5664-3.5-3.5c0-1.9301 1.568-3.5 3.5-3.5z"/><path d="m103.498 0c1.935 0 3.502 1.56643 3.502 3.5 0 1.93356-1.567 3.5-3.502 3.5-1.931 0-3.498-1.56644-3.498-3.5 0-1.93007 1.571-3.5 3.498-3.5z"/><path d="m403.498 60c1.935 0 3.502 1.5664 3.502 3.5s-1.567 3.5-3.502 3.5c-1.931 0-3.498-1.5664-3.498-3.5 0-1.9301 1.567-3.5 3.498-3.5z"/><path d="m143.498 60c1.935 0 3.502 1.5664 3.502 3.5s-1.567 3.5-3.502 3.5c-1.934 0-3.498-1.5664-3.498-3.5-.003-1.9301 1.564-3.5 3.498-3.5z"/><path d="m383.5 60c1.932 0 3.5 1.5664 3.5 3.5s-1.568 3.5-3.5 3.5-3.5-1.5664-3.5-3.5c0-1.9301 1.568-3.5 3.5-3.5z"/><path d="m123.5 60c1.932 0 3.5 1.5664 3.5 3.5s-1.568 3.5-3.5 3.5-3.5-1.5664-3.5-3.5c0-1.9301 1.564-3.5 3.5-3.5z"/><path d="m363.498 60c1.935 0 3.502 1.5664 3.502 3.5s-1.567 3.5-3.502 3.5c-1.931 0-3.498-1.5664-3.498-3.5 0-1.9301 1.567-3.5 3.498-3.5z"/><path d="m123.5 40c1.932 0 3.5 1.5664 3.5 3.5s-1.568 3.5-3.5 3.5-3.5-1.5664-3.5-3.5c0-1.9301 1.564-3.5 3.5-3.5z"/><path d="m363.498 40c1.935 0 3.502 1.5664 3.502 3.5s-1.567 3.5-3.502 3.5c-1.931 0-3.498-1.5664-3.498-3.5 0-1.9301 1.567-3.5 3.498-3.5z"/><path d="m423.498 40c1.938 0 3.502 1.5664 3.502 3.5s-1.567 3.5-3.502 3.5c-1.931 0-3.498-1.5664-3.498-3.5 0-1.9301 1.567-3.5 3.498-3.5z"/><path d="m163.5 40c1.935 0 3.5 1.5664 3.5 3.5s-1.568 3.5-3.5 3.5-3.5-1.5664-3.5-3.5c0-1.9301 1.568-3.5 3.5-3.5z"/><path d="m143.498 40c1.935 0 3.502 1.5664 3.502 3.5s-1.567 3.5-3.502 3.5c-1.934 0-3.498-1.5664-3.498-3.5-.003-1.9301 1.564-3.5 3.498-3.5z"/><path d="m383.5 40c1.932 0 3.5 1.5664 3.5 3.5s-1.568 3.5-3.5 3.5-3.5-1.5664-3.5-3.5c0-1.9301 1.568-3.5 3.5-3.5z"/><path d="m123.5 20c1.932 0 3.5 1.5664 3.5 3.5s-1.568 3.5-3.5 3.5-3.5-1.5664-3.5-3.5c0-1.9301 1.564-3.5 3.5-3.5z"/><path d="m143.498 20c1.935 0 3.502 1.5664 3.502 3.5s-1.567 3.5-3.502 3.5c-1.934 0-3.498-1.5664-3.498-3.5-.003-1.9301 1.564-3.5 3.498-3.5z"/><path d="m383.5 20c1.932 0 3.5 1.5664 3.5 3.5s-1.568 3.5-3.5 3.5-3.5-1.5664-3.5-3.5c0-1.9301 1.568-3.5 3.5-3.5z"/><path d="m123.5 0c1.932 0 3.5 1.56643 3.5 3.5 0 1.93356-1.568 3.5-3.5 3.5s-3.5-1.56644-3.5-3.5c0-1.93007 1.564-3.5 3.5-3.5z"/><path d="m143.498 0c1.935 0 3.502 1.56643 3.502 3.5 0 1.93356-1.567 3.5-3.502 3.5-1.934 0-3.498-1.56644-3.498-3.5-.003-1.93007 1.564-3.5 3.498-3.5z"/><path d="m403.5 0c1.932 0 3.5 1.56643 3.5 3.5 0 1.93356-1.568 3.5-3.5 3.5s-3.5-1.56644-3.5-3.5c0-1.93007 1.568-3.5 3.5-3.5z"/><path d="m423.498 0c1.938 0 3.502 1.56643 3.502 3.5 0 1.93356-1.567 3.5-3.502 3.5-1.931 0-3.498-1.56644-3.498-3.5 0-1.93007 1.567-3.5 3.498-3.5z"/><path d="m183.498 40c1.938 0 3.502 1.5664 3.502 3.5s-1.567 3.5-3.502 3.5c-1.931 0-3.498-1.5664-3.498-3.5 0-1.9301 1.567-3.5 3.498-3.5z"/><path d="m183.498 0c1.938 0 3.502 1.56643 3.502 3.5 0 1.93356-1.567 3.5-3.502 3.5-1.931 0-3.498-1.56644-3.498-3.5 0-1.93007 1.567-3.5 3.498-3.5z"/><path d="m443.498 20c1.935 0 3.502 1.5664 3.502 3.5s-1.567 3.5-3.502 3.5c-1.931 0-3.498-1.5664-3.498-3.5 0-1.9301 1.567-3.5 3.498-3.5z"/><path d="m23.4983 60c1.9345 0 3.5017 1.5664 3.5017 3.5s-1.5672 3.5-3.5017 3.5c-1.9311 0-3.4983-1.5664-3.4983-3.5 0-1.9301 1.5707-3.5 3.4983-3.5z"/><path d="m3.5 60c1.9355 0 3.5 1.5664 3.5 3.5s-1.568 3.5-3.5 3.5-3.5-1.5664-3.5-3.5c0-1.9301 1.568-3.5 3.5-3.5z"/><path d="m243.498 60c1.935 0 3.502 1.5664 3.502 3.5s-1.567 3.5-3.502 3.5c-1.931 0-3.498-1.5664-3.498-3.5 0-1.9301 1.567-3.5 3.498-3.5z"/><path d="m223.5 60c1.932 0 3.5 1.5664 3.5 3.5s-1.568 3.5-3.5 3.5-3.5-1.5664-3.5-3.5c0-1.9301 1.568-3.5 3.5-3.5z"/><path d="m203.498 60c1.935 0 3.502 1.5664 3.502 3.5s-1.567 3.5-3.502 3.5c-1.931 0-3.498-1.5664-3.498-3.5 0-1.9301 1.567-3.5 3.498-3.5z"/><path d="m203.498 40c1.935 0 3.502 1.5664 3.502 3.5s-1.567 3.5-3.502 3.5c-1.931 0-3.498-1.5664-3.498-3.5 0-1.9301 1.567-3.5 3.498-3.5z"/><path d="m263.498 40c1.938 0 3.502 1.5664 3.502 3.5s-1.567 3.5-3.502 3.5c-1.931 0-3.498-1.5664-3.498-3.5 0-1.9301 1.567-3.5 3.498-3.5z"/><path d="m223.5 40c1.932 0 3.5 1.5664 3.5 3.5s-1.568 3.5-3.5 3.5-3.5-1.5664-3.5-3.5c0-1.9301 1.568-3.5 3.5-3.5z"/><path d="m523.5 20c1.932 0 3.5 1.5664 3.5 3.5s-1.568 3.5-3.5 3.5-3.5-1.5664-3.5-3.5c0-1.9301 1.564-3.5 3.5-3.5z"/><path d="m203.498 20c1.935 0 3.502 1.5664 3.502 3.5s-1.567 3.5-3.502 3.5c-1.931 0-3.498-1.5664-3.498-3.5 0-1.9301 1.567-3.5 3.498-3.5z"/><path d="m483.5 20c1.932 0 3.5 1.5664 3.5 3.5s-1.568 3.5-3.5 3.5-3.5-1.5664-3.5-3.5c0-1.9301 1.568-3.5 3.5-3.5z"/><path d="m203.498 0c1.935 0 3.502 1.56643 3.502 3.5 0 1.93356-1.567 3.5-3.502 3.5-1.931 0-3.498-1.56644-3.498-3.5 0-1.93007 1.567-3.5 3.498-3.5z"/><path d="m223.5 0c1.932 0 3.5 1.56643 3.5 3.5 0 1.93356-1.568 3.5-3.5 3.5s-3.5-1.56644-3.5-3.5c0-1.93007 1.568-3.5 3.5-3.5z"/><path d="m243.5 0c1.932 0 3.5 1.56643 3.5 3.5 0 1.93356-1.568 3.5-3.5 3.5s-3.5-1.56644-3.5-3.5c0-1.93007 1.568-3.5 3.5-3.5z"/><path d="m263.498 20c1.938 0 3.502 1.5664 3.502 3.5s-1.567 3.5-3.502 3.5c-1.931 0-3.498-1.5664-3.498-3.5 0-1.9301 1.567-3.5 3.498-3.5z"/><path d="m243.498 20c1.935 0 3.502 1.5664 3.502 3.5s-1.567 3.5-3.502 3.5c-1.931 0-3.498-1.5664-3.498-3.5 0-1.9301 1.567-3.5 3.498-3.5z"/><path d="m143.498 80c1.935 0 3.502 1.5664 3.502 3.5s-1.567 3.5-3.502 3.5c-1.934 0-3.498-1.5664-3.498-3.5-.003-1.9301 1.564-3.5 3.498-3.5z"/><path d="m163.498 80c1.935 0 3.502 1.5664 3.502 3.5s-1.567 3.5-3.502 3.5c-1.934 0-3.498-1.5664-3.498-3.5-.003-1.9301 1.564-3.5 3.498-3.5z"/><path d="m403.5 80c1.932 0 3.5 1.5664 3.5 3.5s-1.568 3.5-3.5 3.5-3.5-1.5664-3.5-3.5c0-1.9301 1.568-3.5 3.5-3.5z"/><path d="m163.5 100c1.935 0 3.5 1.566 3.5 3.5s-1.568 3.5-3.5 3.5-3.5-1.566-3.5-3.5c0-1.93 1.568-3.5 3.5-3.5z"/><path d="m403.498 100c1.935 0 3.502 1.566 3.502 3.5s-1.567 3.5-3.502 3.5c-1.931 0-3.498-1.566-3.498-3.5 0-1.93 1.567-3.5 3.498-3.5z"/><path d="m423.498 80c1.938 0 3.502 1.5664 3.502 3.5s-1.567 3.5-3.502 3.5c-1.931 0-3.498-1.5664-3.498-3.5 0-1.9301 1.567-3.5 3.498-3.5z"/><path d="m183.498 100c1.938 0 3.502 1.566 3.502 3.5s-1.567 3.5-3.502 3.5c-1.931 0-3.498-1.566-3.498-3.5 0-1.93 1.567-3.5 3.498-3.5z"/><path d="m203.498 100c1.935 0 3.502 1.566 3.502 3.5s-1.567 3.5-3.502 3.5c-1.931 0-3.498-1.566-3.498-3.5 0-1.93 1.567-3.5 3.498-3.5z"/><path d="m203.498 80c1.935 0 3.502 1.5664 3.502 3.5s-1.567 3.5-3.502 3.5c-1.931 0-3.498-1.5664-3.498-3.5 0-1.9301 1.567-3.5 3.498-3.5z"/><path d="m23.4983 100c1.9345 0 3.5017 1.566 3.5017 3.5s-1.5672 3.5-3.5017 3.5c-1.9311 0-3.4983-1.566-3.4983-3.5 0-1.93 1.5707-3.5 3.4983-3.5z"/><path d="m243.498 100c1.935 0 3.502 1.566 3.502 3.5s-1.567 3.5-3.502 3.5c-1.931 0-3.498-1.566-3.498-3.5 0-1.93 1.567-3.5 3.498-3.5z"/><path d="m283.498 140c1.935 0 3.502 1.566 3.502 3.5s-1.567 3.5-3.502 3.5c-1.931 0-3.498-1.566-3.498-3.5 0-1.93 1.567-3.5 3.498-3.5z"/><path d="m303.5 140c1.932 0 3.5 1.566 3.5 3.5s-1.568 3.5-3.5 3.5-3.5-1.566-3.5-3.5c0-1.93 1.568-3.5 3.5-3.5z"/><path d="m83.4983 140c1.9345 0 3.5017 1.566 3.5017 3.5s-1.5672 3.5-3.5017 3.5c-1.9346 0-3.4983-1.566-3.4983-3.5-.0035-1.93 1.5637-3.5 3.4983-3.5z"/><path d="m103.498 120c1.935 0 3.502 1.566 3.502 3.5s-1.567 3.5-3.502 3.5c-1.931 0-3.498-1.566-3.498-3.5 0-1.93 1.571-3.5 3.498-3.5z"/><path d="m283.498 120c1.935 0 3.502 1.566 3.502 3.5s-1.567 3.5-3.502 3.5c-1.931 0-3.498-1.566-3.498-3.5 0-1.93 1.567-3.5 3.498-3.5z"/><path d="m263.498 120c1.938 0 3.502 1.566 3.502 3.5s-1.567 3.5-3.502 3.5c-1.931 0-3.498-1.566-3.498-3.5 0-1.93 1.567-3.5 3.498-3.5z"/><path d="m123.5 140c1.932 0 3.5 1.566 3.5 3.5s-1.568 3.5-3.5 3.5-3.5-1.566-3.5-3.5c0-1.93 1.564-3.5 3.5-3.5z"/><path d="m163.498 140c1.935 0 3.502 1.566 3.502 3.5s-1.567 3.5-3.502 3.5c-1.934 0-3.498-1.566-3.498-3.5-.003-1.93 1.564-3.5 3.498-3.5z"/><path d="m203.498 140c1.935 0 3.502 1.566 3.502 3.5s-1.567 3.5-3.502 3.5c-1.931 0-3.498-1.566-3.498-3.5 0-1.93 1.567-3.5 3.498-3.5z"/><path d="m243.5 140c1.932 0 3.5 1.566 3.5 3.5s-1.568 3.5-3.5 3.5-3.5-1.566-3.5-3.5c0-1.93 1.568-3.5 3.5-3.5z"/></g></svg>