<svg fill="none" height="13" viewBox="0 0 74 13" width="74" xmlns="http://www.w3.org/2000/svg"><g clip-rule="evenodd" fill="#f59267" fill-rule="evenodd"><path d="m63.9883 0v2.32695h3.5574v10.37735h2.8964v-10.37735h3.5569v-2.32695z"/><path d="m52.1953 0v12.7043h9.1649v-2.248h-6.278v-3.16722h4.6482v-2.05085h-4.6482v-2.99024h6.278v-2.24799z"/><path d="m39.4062 0v12.7043h10.185v-6.14658h-3.006c.0434 1.20405.0434 2.42117 0 3.64968-.0067.122-.182.2603-.251.2603-1.3221.0393-2.4095.0349-3.7066-.007-.0812-.0028-.2543-.1068-.2543-.2293-.0406-3.41773-.0328-6.82783.0223-10.2314z"/><path d="m26.5684 0v12.7043h10.1849v-6.14658h-3.006c.0434 1.20405.0434 2.42117 0 3.64968-.0067.122-.182.2603-.251.2603-1.3221.0393-2.4095.0349-3.7066-.007-.0812-.0028-.2543-.1068-.2543-.2293-.0406-3.41773-.0328-6.82783.0223-10.2314z"/><path d="m14.2009 11.9473c-.695-.6175-.7907-1.4354-.7907-2.2278v-9.7195h2.9843v8.95166c0 1.66254 1.74 1.66254 2.3121 1.66254.5765 0 2.3315 0 2.3315-1.66254v-8.95166h2.8875v9.7195c0 .7924-.0957 1.6108-.7907 2.2278-.7969.708-2.2581 1.0522-4.4667 1.0522-2.2092.0005-3.6705-.3437-4.4673-1.0522z"/><path d="m8.63407 6.07197c.12965-.05446.78405-.69705.80075-2.12982.00556-.48031.01335-.507-.02004-1.12563-.12798-2.378685-2.74948-2.81488629-3.17072-2.81652h-6.24406v12.7043h.11797 5.253 2.18746c2.26758 0 3.22357-.6987 3.22357-2.4925v-1.81179c0-1.76822-.78794-2.23383-2.14793-2.32804zm-5.75215-4.1981h2.46346c.93596 0 1.51747.58432 1.51747 1.5248v.3006c0 .94048-.58151 1.08642-1.51747 1.08642h-2.46346zm4.88685 7.12462c0 .94048-.58151 1.45781-1.51747 1.45781h-3.36938v-3.42317h3.36882c.93597 0 1.51747.57671 1.51747 1.50465v.46071z"/></g></svg>